<mxfile host="app.diagrams.net" modified="2023-01-03T22:06:58.660Z" agent="5.0 (Windows NT 10.0; Win64; x64) AppleWebKit/537.36 (KHTML, like Gecko) Chrome/107.0.0.0 Safari/537.36" version="20.7.4" etag="jbU5vJz7Xosao1ecgvJj" type="github">
  <diagram id="__hFmnjDo2Hrexqw0dXe" name="Page-1">
    <mxGraphModel dx="794" dy="470" grid="0" gridSize="10" guides="1" tooltips="1" connect="1" arrows="1" fold="1" page="1" pageScale="1" pageWidth="850" pageHeight="1100" background="#142844" math="0" shadow="0">
      <root>
        <mxCell id="0" />
        <mxCell id="1" parent="0" />
        <mxCell id="yOAX5SnzQCUQc8W-8GIk-1" value="Input" style="shape=image;verticalLabelPosition=bottom;labelBackgroundColor=default;verticalAlign=top;aspect=fixed;imageAspect=0;image=https://cdn-icons-png.flaticon.com/512/5205/5205407.png;" vertex="1" parent="1">
          <mxGeometry x="60" y="140" width="140" height="140" as="geometry" />
        </mxCell>
        <mxCell id="yOAX5SnzQCUQc8W-8GIk-2" value="Pre-processing" style="shape=image;verticalLabelPosition=bottom;labelBackgroundColor=default;verticalAlign=top;aspect=fixed;imageAspect=0;image=https://cdn-icons-png.flaticon.com/512/4149/4149680.png;" vertex="1" parent="1">
          <mxGeometry x="270" y="140" width="140" height="140" as="geometry" />
        </mxCell>
        <mxCell id="yOAX5SnzQCUQc8W-8GIk-3" value="Analysis" style="shape=image;verticalLabelPosition=bottom;labelBackgroundColor=default;verticalAlign=top;aspect=fixed;imageAspect=0;image=https://cdn-icons-png.flaticon.com/512/3703/3703299.png;" vertex="1" parent="1">
          <mxGeometry x="460" y="140" width="140" height="140" as="geometry" />
        </mxCell>
        <mxCell id="yOAX5SnzQCUQc8W-8GIk-4" value="Output" style="shape=image;verticalLabelPosition=bottom;labelBackgroundColor=default;verticalAlign=top;aspect=fixed;imageAspect=0;image=https://cdn-icons-png.flaticon.com/512/3488/3488822.png;" vertex="1" parent="1">
          <mxGeometry x="660" y="130" width="147" height="147" as="geometry" />
        </mxCell>
        <mxCell id="yOAX5SnzQCUQc8W-8GIk-6" value="" style="shape=flexArrow;endArrow=classic;html=1;rounded=0;fillColor=default;" edge="1" parent="1">
          <mxGeometry width="50" height="50" relative="1" as="geometry">
            <mxPoint x="210" y="200" as="sourcePoint" />
            <mxPoint x="260" y="200" as="targetPoint" />
          </mxGeometry>
        </mxCell>
        <mxCell id="yOAX5SnzQCUQc8W-8GIk-7" value="" style="shape=flexArrow;endArrow=classic;html=1;rounded=0;fillColor=default;" edge="1" parent="1">
          <mxGeometry width="50" height="50" relative="1" as="geometry">
            <mxPoint x="600" y="200" as="sourcePoint" />
            <mxPoint x="650" y="200" as="targetPoint" />
          </mxGeometry>
        </mxCell>
        <mxCell id="yOAX5SnzQCUQc8W-8GIk-8" value="" style="shape=flexArrow;endArrow=classic;html=1;rounded=0;fillColor=default;" edge="1" parent="1">
          <mxGeometry width="50" height="50" relative="1" as="geometry">
            <mxPoint x="400" y="200" as="sourcePoint" />
            <mxPoint x="450" y="200" as="targetPoint" />
          </mxGeometry>
        </mxCell>
        <mxCell id="yOAX5SnzQCUQc8W-8GIk-11" value="&lt;font color=&quot;#ffffff&quot;&gt;Created by Ravi Kumar&lt;/font&gt;" style="text;html=1;align=center;verticalAlign=middle;resizable=0;points=[];autosize=1;strokeColor=#e7d9d9;fillColor=none;" vertex="1" parent="1">
          <mxGeometry x="365" y="318" width="143" height="26" as="geometry" />
        </mxCell>
      </root>
    </mxGraphModel>
  </diagram>
</mxfile>
